HIERARCHY
ROOT Hips
{
	OFFSET 0.000000 0.000000 0.000000
	CHANNELS 6 Xposition Yposition Zposition Zrotation Yrotation Xrotation 
	JOINT LHipJoint
	{
		OFFSET 0.000000 0.000000 0.000000
		CHANNELS 3 Zrotation Yrotation Xrotation
		JOINT LeftUpLeg
		{
			OFFSET 1.363060 -1.794630 0.839290
			CHANNELS 3 Zrotation Yrotation Xrotation
			JOINT LeftLeg
			{
				OFFSET 2.448110 -6.726130 0.000000
				CHANNELS 3 Zrotation Yrotation Xrotation
				JOINT LeftFoot
				{
					OFFSET 2.562200 -7.039590 0.000000
					CHANNELS 3 Zrotation Yrotation Xrotation
					JOINT LeftToeBase
					{
						OFFSET 0.157640 -0.433110 2.322550
						CHANNELS 3 Zrotation Yrotation Xrotation
						End Site
						{
							OFFSET 0.000000 0.000000 0.000000
						}
					}
				}
			}
		}
	}
	JOINT RHipJoint
	{
		OFFSET 0.000000 0.000000 0.000000
		CHANNELS 3 Zrotation Yrotation Xrotation
		JOINT RightUpLeg
		{
			OFFSET -1.305520 -1.794630 0.839290
			CHANNELS 3 Zrotation Yrotation Xrotation
			JOINT RightLeg
			{
				OFFSET -2.542530 -6.985550 0.000000
				CHANNELS 3 Zrotation Yrotation Xrotation
				JOINT RightFoot
				{
					OFFSET -2.568260 -7.056230 0.000000
					CHANNELS 3 Zrotation Yrotation Xrotation
					JOINT RightToeBase
					{
						OFFSET -0.164730 -0.452590 2.363150
						CHANNELS 3 Zrotation Yrotation Xrotation
						End Site
						{
							OFFSET 0.000000 0.000000 0.000000
						}
					}
				}
			}
		}
	}
}
MOTION
Frames: 28
Frame Time: 0.008333
-11.358037 16.696880 1.189484 -169.659490 89.359672 -158.226036 -11.182695 3.135665 -0.949383 -8.660378 4.018756 -4.925883 -0.034411 2.271796 41.104274 2.333807 15.783649 -0.000927 1.999700 0.000000 -60.526900 9.350420 0.315434 2.156770 1.703180 -1.086348 -35.219247 2.130311 -0.337651 10.997047 -0.468257 -2.969429 7.419377 -1.459900 -0.000000 -44.672400
-11.140422 16.693081 1.184835 -123.532223 89.325160 -112.204237 -11.531031 3.157056 -1.002388 -8.185926 4.833620 -6.991924 0.211203 2.500068 45.059163 2.570995 17.385607 0.934025 2.463900 0.000000 -51.563301 9.195006 0.178076 1.962800 2.657770 -1.631791 -35.209578 2.142262 -0.494413 12.347746 -0.405095 -2.860909 8.732586 -1.495500 -0.000001 -45.230100
-10.927998 16.693249 1.176414 -107.166283 88.933510 -95.924547 -11.891577 3.017418 -1.069941 -7.746178 5.596642 -9.110139 0.462612 2.650700 48.885353 2.790421 18.849770 1.283310 2.783899 0.000000 -41.087399 9.006195 -0.042833 1.792297 3.617694 -2.258061 -35.138805 2.214424 -0.647227 13.468013 -0.330610 -2.551635 9.678206 -1.432400 0.000000 -45.997899
-10.720734 16.697906 1.165000 -101.111845 88.458617 -89.917858 -12.204713 2.835599 -1.144047 -7.381595 6.298013 -11.298350 0.670884 2.787267 52.462712 2.991446 20.165872 1.157540 2.952500 0.000001 -31.256801 8.835619 -0.264611 1.626864 4.567078 -2.901551 -34.992859 2.314367 -0.771460 14.376859 -0.243543 -2.098252 10.224593 -1.294900 0.000001 -46.973500
-10.518480 16.707299 1.151879 -99.059184 87.986400 -87.870855 -12.475024 2.634430 -1.209776 -7.148614 6.873994 -13.536455 0.843612 2.918361 55.728910 3.173670 21.334299 0.715257 2.993800 0.000000 -23.638500 8.676058 -0.469249 1.462259 5.451868 -3.555829 -34.766811 2.432675 -0.863958 15.101251 -0.148642 -1.552501 10.365455 -1.109300 0.000000 -48.131000
-10.320668 16.721434 1.137490 -99.109823 87.538984 -87.878509 -12.709194 2.421175 -1.255865 -7.056106 7.291479 -15.829542 0.986112 3.046257 58.681175 3.331543 22.311003 -0.026882 2.888700 0.000000 -18.176599 8.521175 -0.656215 1.306732 6.252149 -4.188033 -34.454279 2.562134 -0.922068 15.634829 -0.057864 -1.004942 10.146026 -0.918200 -0.000000 -49.399400
-10.126620 16.740104 1.122548 -100.508551 87.135215 -89.186058 -12.904360 2.203331 -1.275893 -7.121658 7.529502 -18.167423 1.100329 3.171037 61.308198 3.461817 23.066104 -1.068400 2.621700 0.000000 -14.346900 8.375260 -0.821537 1.164018 6.941263 -4.783771 -34.050169 2.693478 -0.945874 15.978647 0.019324 -0.522667 9.637429 -0.752200 -0.000000 -50.687500
-9.935721 16.762963 1.107937 -102.861506 86.792479 -91.409504 -13.052467 1.989524 -1.268948 -7.362887 7.580348 -20.518967 1.184931 3.291268 63.585918 3.562772 23.580027 -2.414260 2.184700 0.000000 -11.422200 8.248781 -0.958387 1.031572 7.490137 -5.346341 -33.548228 2.816625 -0.937925 16.142349 0.076671 -0.145806 8.925336 -0.626800 0.000001 -51.897200
-9.747227 16.789440 1.093829 -105.922132 86.507034 -94.310416 -13.154445 1.783298 -1.232418 -7.763092 7.449609 -22.856830 1.240329 3.402277 65.485783 3.635207 23.854831 -3.968491 1.619300 0.000000 -9.329001 8.143218 -1.067709 0.911809 7.895668 -5.859226 -32.940245 2.924209 -0.899594 16.120049 0.107724 0.078429 8.111120 -0.554900 -0.000000 -52.930800
-9.560361 16.818884 1.080253 -109.476159 86.267383 -97.683664 -13.210785 1.587178 -1.169628 -8.293639 7.161361 -25.150588 1.262729 3.500646 66.986797 3.679542 23.888556 -5.708659 0.947100 0.000000 -7.355900 8.059729 -1.151823 0.804934 8.165593 -6.309976 -32.220598 3.010697 -0.833871 15.909151 0.109099 0.121549 7.293729 -0.539001 0.000000 -53.725300
-9.374316 16.850517 1.066763 -113.292657 86.052095 -101.301053 -13.229109 1.398455 -1.078478 -8.905989 6.741843 -27.381865 1.256172 3.579713 68.064867 3.700362 23.724417 -7.406914 0.279700 -0.000000 -6.418300 7.991874 -1.218956 0.717111 8.327322 -6.670550 -31.391203 3.073683 -0.742932 15.500823 0.078250 -0.045644 6.563598 -0.581400 -0.000000 -54.254400
-9.188871 16.883604 1.053672 -117.204604 85.864090 -105.017908 -13.205069 1.222002 -0.969979 -9.587538 6.233972 -29.502537 1.217665 3.637265 68.703629 3.702159 23.398631 -9.026105 -0.350800 -0.000000 -5.919199 7.947005 -1.267539 0.637639 8.381252 -6.970859 -30.455350 3.110596 -0.635115 14.929315 0.021639 -0.383103 5.971982 -0.665300 0.000000 -54.539100
-9.003562 16.917371 1.040509 -121.021769 85.688422 -108.648837 -13.145086 1.056074 -0.849753 -10.300079 5.684480 -31.500402 1.149790 3.670497 68.903208 3.691044 22.962833 -10.469803 -0.894700 0.000000 -5.878400 7.919494 -1.304883 0.567569 8.357413 -7.206390 -29.426771 3.123956 -0.515161 14.209997 -0.056194 -0.871650 5.555112 -0.785400 -0.000000 -54.628600
-8.818246 16.951030 1.027152 -124.620822 85.522749 -112.080508 -13.052079 0.901729 -0.725856 -11.026442 5.138728 -33.357983 1.055384 3.678028 68.669107 3.674381 22.475953 -11.678528 -1.326201 0.000000 -6.207200 7.908237 -1.334146 0.502020 8.273216 -7.397679 -28.323524 3.117605 -0.389573 13.378906 -0.146615 -1.459700 5.314339 -0.930500 -0.000000 -54.593000
-8.632847 16.983916 1.013213 -127.888402 85.360744 -115.204395 -12.932429 0.758934 -0.603376 -11.748087 4.637741 -35.071205 0.938824 3.659217 68.016185 3.658734 21.990350 -12.611303 -1.634000 -0.000000 -6.901900 7.907842 -1.360753 0.440871 8.152675 -7.553293 -27.163692 3.097442 -0.262430 12.464454 -0.242204 -2.103312 5.231572 -1.093100 -0.000000 -54.507700
-8.447426 17.015335 0.998595 -130.806604 85.205545 -118.009009 -12.787953 0.630533 -0.489827 -12.467881 4.212103 -36.628562 0.800678 3.615184 66.963884 3.649989 21.541207 -13.318571 -1.845400 -0.000000 -7.503300 7.918466 -1.384963 0.376585 8.005214 -7.706789 -25.968568 3.069651 -0.139271 11.512591 -0.332923 -2.734468 5.262081 -1.257301 0.000000 -54.445601
-8.261960 17.044664 0.983061 -133.362772 85.055914 -120.482728 -12.623085 0.517977 -0.388143 -13.184773 3.879773 -38.027905 0.642085 3.546960 65.534554 3.651441 21.144626 -13.848407 -1.984900 -0.000001 -7.812500 7.937067 -1.408664 0.306278 7.843649 -7.876486 -24.755544 3.040415 -0.022904 10.556349 -0.411825 -3.304468 5.356797 -1.410200 -0.000000 -54.466900
-8.076524 17.071385 0.966391 -135.568792 84.909380 -122.640269 -12.441919 0.422764 -0.299248 -13.898277 3.647277 -39.261793 0.463577 3.455168 63.746659 3.663298 20.796054 -14.251418 -2.074900 0.000000 -7.752700 7.961401 -1.433028 0.226892 7.676744 -8.078516 -23.532130 3.014586 0.085153 9.620304 -0.474233 -3.777163 5.467950 -1.539300 -0.000000 -54.616399
-7.891053 17.094959 0.948410 -137.461943 84.764038 -124.517498 -12.247706 0.345842 -0.221918 -14.609386 3.508605 -40.325424 0.264254 3.340221 61.618416 3.683402 20.471312 -14.595019 -2.140500 0.000000 -7.225900 7.990073 -1.458239 0.135333 7.509231 -8.327352 -22.305325 2.995501 0.184030 8.725355 -0.517596 -4.128352 5.553225 -1.634300 -0.000000 -54.918600
-7.705373 17.114898 0.928951 -139.080178 84.616180 -126.150053 -12.043868 0.287035 -0.152428 -15.315261 3.449913 -41.215721 0.043696 3.201505 59.164582 3.707239 20.134584 -14.925367 -2.196501 0.000000 -6.316300 8.021547 -1.484804 0.030195 7.345042 -8.630197 -21.077225 2.984628 0.273898 7.882230 -0.542470 -4.354731 5.585276 -1.690500 0.000000 -55.377600
-7.519257 17.130766 0.907911 -140.468702 84.461463 -127.581346 -11.833651 0.245442 -0.085994 -16.010283 3.453885 -41.928178 -0.197744 3.037340 56.396225 3.728950 19.747937 -15.263405 -2.247100 0.000000 -5.218699 8.054843 -1.513181 -0.089593 7.186221 -8.991039 -19.844657 2.981681 0.355346 7.094161 -0.551604 -4.468821 5.552012 -1.709500 0.000000 -55.978300
-7.332171 17.142126 0.885055 -141.643158 84.294159 -128.815676 -11.621222 0.218089 -0.014314 -16.684468 3.499788 -42.477393 -0.459935 2.845463 53.329947 3.743392 19.274134 -15.639581 -2.299100 0.000000 -3.936300 8.086324 -1.545567 -0.219534 7.040940 -9.398780 -18.614968 2.985586 0.430055 6.358389 -0.550691 -4.505297 5.455941 -1.701300 0.000000 -56.692800
-7.143694 17.148623 0.860220 -142.630755 84.108914 -129.874641 -11.410380 0.202202 0.069320 -17.329073 3.572745 -42.871299 -0.740072 2.622434 49.976886 3.745019 18.691041 -16.028225 -2.340100 0.000000 -2.780000 8.114047 -1.583477 -0.356934 6.913279 -9.845623 -17.388052 2.994035 0.499176 5.669857 -0.545751 -4.503449 5.309531 -1.677600 0.000000 -57.480700
-6.953423 17.150034 0.833217 -143.446788 83.900933 -130.765881 -11.205295 0.194340 0.171344 -17.936788 3.663308 -43.126547 -1.034773 2.364504 46.351835 3.729888 17.990525 -16.402297 -2.358900 0.000000 -1.910800 8.135160 -1.628866 -0.497438 6.810122 -10.318889 -16.169187 3.004593 0.563842 5.023484 -0.543194 -4.507762 5.131347 -1.652499 -0.000000 -58.299401
-6.760863 17.146243 0.803766 -144.090841 83.664836 -131.479446 -11.011262 0.190913 0.297844 -18.501850 3.769261 -43.266946 -1.338627 2.067885 42.474106 3.695206 17.181648 -16.715860 -2.341100 0.000000 -1.531300 8.145816 -1.684208 -0.634456 6.740997 -10.799877 -14.967949 3.015130 0.625310 4.415599 -0.549339 -4.563448 4.938928 -1.639300 0.000000 -59.101100
-6.565763 17.137209 0.771531 -144.567845 83.397135 -132.013957 -10.833374 0.188631 0.451327 -19.025948 3.897505 -43.316808 -1.646150 1.729528 38.370481 3.640012 16.286365 -16.936666 -2.280800 0.000000 -1.653900 8.142818 -1.750899 -0.763178 6.712982 -11.273580 -13.794453 3.023907 0.684051 3.848471 -0.568808 -4.704012 4.744907 -1.647100 0.000000 -59.848500
-6.368363 17.123139 0.736324 -144.908526 83.094642 -132.410515 -10.677012 0.185003 0.625712 -19.517553 4.072470 -43.280375 -1.950545 1.348272 34.075389 3.562035 15.333666 -17.020588 -2.172700 0.000000 -2.333000 8.125938 -1.828247 -0.885733 6.723349 -11.740664 -12.640246 3.029327 0.738849 3.329111 -0.602855 -4.939065 4.555295 -1.677800 -0.000000 -60.505100
-6.168607 17.104234 0.697585 -145.101425 82.754715 -132.653609 -10.548707 0.176724 0.817465 -19.988202 4.315527 -43.193289 -2.244793 0.926654 29.653775 3.461852 14.353476 -16.960803 -2.024400 0.000000 -3.388799 8.091147 -1.917246 -0.996058 6.778832 -12.182335 -11.519598 3.031342 0.789484 2.871278 -0.652842 -5.276737 4.367073 -1.732500 0.000001 -61.048200
